<svg xmlns="http://www.w3.org/2000/svg" width="960" height="520" viewBox="0 0 960 520">
  <rect width="960" height="520" rx="24" fill="#f8fbfc"/>
  <text x="480" y="54" text-anchor="middle" font-family="Tahoma, Arial" font-size="30" font-weight="700" fill="#083447">Burndown Chart - Sprint Delivery</text>
  <line x1="90" y1="430" x2="880" y2="430" stroke="#cad7de" stroke-width="3"/>
  <line x1="90" y1="90" x2="90" y2="430" stroke="#cad7de" stroke-width="3"/>
  <g font-family="Tahoma, Arial" font-size="18" fill="#52616b">
    <text x="74" y="435" text-anchor="end">0</text>
    <text x="74" y="354" text-anchor="end">10</text>
    <text x="74" y="273" text-anchor="end">20</text>
    <text x="74" y="192" text-anchor="end">30</text>
    <text x="74" y="111" text-anchor="end">40</text>
  </g>
  <g stroke="#e5edf1" stroke-width="1">
    <line x1="90" y1="349" x2="880" y2="349"/>
    <line x1="90" y1="268" x2="880" y2="268"/>
    <line x1="90" y1="187" x2="880" y2="187"/>
    <line x1="90" y1="106" x2="880" y2="106"/>
  </g>
  <polyline points="90,90 169,122 248,154 327,187 406,219 485,252 564,284 643,316 722,349 801,381 880,430" fill="none" stroke="#8b99a3" stroke-width="6" stroke-dasharray="14 12"/>
  <polyline points="90,90 169,106 248,146 327,178 406,202 485,235 564,276 643,308 722,349 801,381 880,414" fill="none" stroke="#087f8c" stroke-width="8"/>
  <g fill="#087f8c">
    <circle cx="90" cy="90" r="7"/><circle cx="169" cy="106" r="7"/><circle cx="248" cy="146" r="7"/>
    <circle cx="327" cy="178" r="7"/><circle cx="406" cy="202" r="7"/><circle cx="485" cy="235" r="7"/>
    <circle cx="564" cy="276" r="7"/><circle cx="643" cy="308" r="7"/><circle cx="722" cy="349" r="7"/>
    <circle cx="801" cy="381" r="7"/><circle cx="880" cy="414" r="7"/>
  </g>
  <g font-family="Tahoma, Arial" font-size="17" fill="#52616b">
    <text x="90" y="465" text-anchor="middle">Day 0</text>
    <text x="485" y="465" text-anchor="middle">Day 5</text>
    <text x="880" y="465" text-anchor="middle">Day 10</text>
  </g>
  <rect x="660" y="82" width="190" height="72" rx="12" fill="#fff" stroke="#d8e3e8"/>
  <line x1="685" y1="108" x2="735" y2="108" stroke="#087f8c" stroke-width="7"/>
  <text x="750" y="114" font-family="Tahoma, Arial" font-size="18" fill="#17212b">Actual</text>
  <line x1="685" y1="134" x2="735" y2="134" stroke="#8b99a3" stroke-width="5" stroke-dasharray="10 8"/>
  <text x="750" y="140" font-family="Tahoma, Arial" font-size="18" fill="#17212b">Ideal</text>
</svg>
