<svg xmlns="http://www.w3.org/2000/svg" width="960" height="520" viewBox="0 0 960 520">
  <rect width="960" height="520" rx="24" fill="#fbfcfd"/>
  <text x="480" y="54" text-anchor="middle" font-family="Tahoma, Arial" font-size="30" font-weight="700" fill="#083447">Forecasted Pilot User Acquisition Until End of Tir</text>
  <line x1="95" y1="430" x2="875" y2="430" stroke="#cad7de" stroke-width="3"/>
  <line x1="95" y1="90" x2="95" y2="430" stroke="#cad7de" stroke-width="3"/>
  <g stroke="#e5edf1" stroke-width="1">
    <line x1="95" y1="360" x2="875" y2="360"/><line x1="95" y1="290" x2="875" y2="290"/>
    <line x1="95" y1="220" x2="875" y2="220"/><line x1="95" y1="150" x2="875" y2="150"/>
  </g>
  <polyline points="95,380 355,310 615,210 875,90" fill="none" stroke="#5b5fc7" stroke-width="9"/>
  <polygon points="95,380 355,310 615,210 875,90 875,430 95,430" fill="#5b5fc7" opacity="0.14"/>
  <g fill="#5b5fc7">
    <circle cx="95" cy="380" r="10"/><circle cx="355" cy="310" r="10"/><circle cx="615" cy="210" r="10"/><circle cx="875" cy="90" r="10"/>
  </g>
  <g font-family="Tahoma, Arial" font-size="20" fill="#17212b" font-weight="700">
    <text x="95" y="365" text-anchor="middle">5</text>
    <text x="355" y="295" text-anchor="middle">12</text>
    <text x="615" y="195" text-anchor="middle">22</text>
    <text x="875" y="75" text-anchor="middle">35</text>
  </g>
  <g font-family="Tahoma, Arial" font-size="18" fill="#52616b">
    <text x="95" y="465" text-anchor="middle">Week 1</text>
    <text x="355" y="465" text-anchor="middle">Week 2</text>
    <text x="615" y="465" text-anchor="middle">Week 3</text>
    <text x="875" y="465" text-anchor="middle">End of Tir</text>
  </g>
</svg>
